<svg width="67" height="67" viewBox="0 0 67 67" fill="none" xmlns="http://www.w3.org/2000/svg">
<rect width="67" height="67" rx="33.5" fill="white" fill-opacity="0.5"/>
<path d="M33.5 23.5319C34.7017 23.5319 35.8541 24.0092 36.7038 24.8589C37.5535 25.7087 38.0309 26.8611 38.0309 28.0628C38.0309 28.6578 37.9137 29.247 37.686 29.7967C37.4583 30.3464 37.1246 30.8459 36.7038 31.2666C36.2831 31.6874 35.7836 32.0211 35.2339 32.2488C34.6842 32.4765 34.095 32.5937 33.5 32.5937C32.2983 32.5937 31.1459 32.1163 30.2961 31.2666C29.4464 30.4169 28.9691 29.2645 28.9691 28.0628C28.9691 26.8611 29.4464 25.7087 30.2961 24.8589C31.1459 24.0092 32.2983 23.5319 33.5 23.5319ZM33.5 15.3762C36.8647 15.3762 40.0915 16.7128 42.4707 19.092C44.8499 21.4712 46.1865 24.6981 46.1865 28.0628C46.1865 37.5777 33.5 51.6236 33.5 51.6236C33.5 51.6236 20.8134 37.5777 20.8134 28.0628C20.8134 24.6981 22.15 21.4712 24.5292 19.092C26.9084 16.7128 30.1353 15.3762 33.5 15.3762M33.5 19.001C31.0966 19.001 28.7917 19.9557 27.0923 21.6551C25.3929 23.3545 24.4381 25.6594 24.4381 28.0628C24.4381 29.8752 24.4381 33.4999 33.5 45.6609C42.5618 33.4999 42.5618 29.8752 42.5618 28.0628C42.5618 25.6594 41.6071 23.3545 39.9077 21.6551C38.2082 19.9557 35.9033 19.001 33.5 19.001V19.001Z" fill="white"/>
</svg>
