<svg width="67" height="67" viewBox="0 0 67 67" fill="none" xmlns="http://www.w3.org/2000/svg">
<rect width="67" height="67" rx="33.5" fill="white" fill-opacity="0.5"/>
<path d="M18.5 24.5C18.5 23.7044 18.8161 22.9413 19.3787 22.3787C19.9413 21.8161 20.7044 21.5 21.5 21.5H45.5C46.2956 21.5 47.0587 21.8161 47.6213 22.3787C48.1839 22.9413 48.5 23.7044 48.5 24.5V42.5C48.5 43.2956 48.1839 44.0587 47.6213 44.6213C47.0587 45.1839 46.2956 45.5 45.5 45.5H21.5C20.7044 45.5 19.9413 45.1839 19.3787 44.6213C18.8161 44.0587 18.5 43.2956 18.5 42.5V24.5ZM23.7785 24.5L33.5 33.0065L43.2215 24.5H23.78H23.7785ZM45.5 26.4935L34.4885 36.1295C34.215 36.3692 33.8637 36.5013 33.5 36.5013C33.1363 36.5013 32.785 36.3692 32.5115 36.1295L21.5 26.4935V42.5H45.5V26.4935Z" fill="white"/>
</svg>
