<svg width="131" height="24" viewBox="0 0 131 24" fill="none" xmlns="http://www.w3.org/2000/svg">
    <path d="M0.152 0.844C0.685333 0.865333 1.368 0.886666 2.2 0.907999C3.032 0.929332 3.864 0.939999 4.696 0.939999C5.74133 0.939999 6.73333 0.929332 7.672 0.907999C8.61067 0.886666 9.272 0.875999 9.656 0.875999C11.576 0.875999 13.1547 1.11067 14.392 1.58C15.6507 2.028 16.5893 2.668 17.208 3.5C17.8267 4.332 18.136 5.31333 18.136 6.444C18.136 7.148 17.9973 7.87333 17.72 8.62C17.4427 9.34533 16.9627 10.0173 16.28 10.636C15.5973 11.2547 14.6587 11.7667 13.464 12.172C12.2907 12.556 10.7867 12.748 8.952 12.748H5.88V12.108H8.632C9.976 12.108 11 11.8733 11.704 11.404C12.4293 10.9133 12.9093 10.2733 13.144 9.484C13.4 8.67333 13.528 7.77733 13.528 6.796C13.528 5.11067 13.1973 3.80933 12.536 2.892C11.8747 1.95333 10.7333 1.484 9.112 1.484C8.23733 1.484 7.66133 1.66533 7.384 2.028C7.128 2.39067 7 3.12667 7 4.236V20.108C7 20.876 7.064 21.452 7.192 21.836C7.32 22.22 7.55467 22.476 7.896 22.604C8.25867 22.732 8.78133 22.8173 9.464 22.86V23.5C8.93067 23.4573 8.248 23.436 7.416 23.436C6.584 23.4147 5.74133 23.404 4.888 23.404C3.928 23.404 3.032 23.4147 2.2 23.436C1.368 23.436 0.685333 23.4573 0.152 23.5V22.86C0.856 22.8173 1.37867 22.732 1.72 22.604C2.08267 22.476 2.31733 22.22 2.424 21.836C2.552 21.452 2.616 20.876 2.616 20.108V4.236C2.616 3.44666 2.552 2.87067 2.424 2.508C2.31733 2.124 2.08267 1.868 1.72 1.74C1.37867 1.59067 0.856 1.50533 0.152 1.484V0.844ZM5.88 12.204C6.88267 12.2467 7.71467 12.3 8.376 12.364C9.05867 12.4067 9.63467 12.4493 10.104 12.492C10.5947 12.5347 11.032 12.588 11.416 12.652C13.1867 12.8227 14.488 13.2387 15.32 13.9C16.1733 14.54 16.7387 15.5213 17.016 16.844L17.752 20.14C17.944 21.0147 18.1467 21.644 18.36 22.028C18.5947 22.3907 18.9253 22.5613 19.352 22.54C19.6507 22.54 19.9067 22.4653 20.12 22.316C20.3333 22.1453 20.5467 21.9213 20.76 21.644L21.208 22.028C20.6747 22.6893 20.1093 23.18 19.512 23.5C18.9147 23.7987 18.1573 23.948 17.24 23.948C16.216 23.948 15.352 23.7133 14.648 23.244C13.944 22.7533 13.464 21.836 13.208 20.492L12.6 17.292C12.4293 16.396 12.2267 15.6067 11.992 14.924C11.7787 14.2413 11.48 13.708 11.096 13.324C10.712 12.94 10.1467 12.748 9.4 12.748H5.944L5.88 12.204ZM29.5523 6.508C31.4296 6.508 32.9016 7.07333 33.9683 8.204C35.0349 9.33467 35.5683 11.1373 35.5683 13.612H24.7843L24.7523 13.004H31.8563C31.8989 11.9587 31.8349 10.9987 31.6643 10.124C31.4936 9.228 31.2163 8.51333 30.8323 7.98C30.4696 7.44667 29.9896 7.18 29.3923 7.18C28.5816 7.18 27.8776 7.66 27.2803 8.62C26.6829 9.55867 26.3096 11.1053 26.1603 13.26L26.2883 13.452C26.2456 13.7293 26.2136 14.028 26.1923 14.348C26.1923 14.668 26.1923 14.988 26.1923 15.308C26.1923 16.78 26.4056 17.996 26.8323 18.956C27.2589 19.916 27.8136 20.62 28.4963 21.068C29.1789 21.516 29.8829 21.74 30.6083 21.74C31.0989 21.74 31.6003 21.6653 32.1123 21.516C32.6243 21.3667 33.1256 21.0893 33.6163 20.684C34.1069 20.2787 34.5549 19.7027 34.9603 18.956L35.5683 19.212C35.3336 19.9587 34.9389 20.7053 34.3843 21.452C33.8509 22.1773 33.1576 22.7747 32.3043 23.244C31.4509 23.7133 30.4483 23.948 29.2963 23.948C27.8456 23.948 26.5656 23.628 25.4563 22.988C24.3469 22.348 23.4829 21.3987 22.8643 20.14C22.2456 18.86 21.9363 17.3027 21.9363 15.468C21.9363 13.5267 22.2563 11.8947 22.8963 10.572C23.5576 9.24933 24.4643 8.24667 25.6163 7.564C26.7683 6.86 28.0803 6.508 29.5523 6.508ZM43.7565 6.508C44.6525 6.508 45.4205 6.636 46.0605 6.892C46.7005 7.148 47.1698 7.372 47.4685 7.564C48.1938 8.09733 48.6312 7.756 48.7805 6.54H49.4845C49.4418 7.15867 49.4098 7.89467 49.3885 8.748C49.3672 9.58 49.3565 10.7 49.3565 12.108H48.6525C48.5458 11.3187 48.3432 10.5507 48.0445 9.804C47.7458 9.05733 47.3085 8.43867 46.7325 7.948C46.1565 7.436 45.3992 7.18 44.4605 7.18C43.7992 7.18 43.2445 7.372 42.7965 7.756C42.3698 8.14 42.1565 8.684 42.1565 9.388C42.1565 10.028 42.3485 10.5933 42.7325 11.084C43.1165 11.5533 43.6072 12.0013 44.2045 12.428C44.8232 12.8333 45.4632 13.2813 46.1245 13.772C46.8925 14.284 47.5752 14.8067 48.1725 15.34C48.7698 15.852 49.2498 16.428 49.6125 17.068C49.9752 17.6867 50.1565 18.4227 50.1565 19.276C50.1565 20.2573 49.8792 21.1 49.3245 21.804C48.7912 22.4867 48.0765 23.02 47.1805 23.404C46.3058 23.7667 45.3352 23.948 44.2685 23.948C43.6925 23.948 43.1698 23.8947 42.7005 23.788C42.2312 23.6813 41.8152 23.5427 41.4525 23.372C41.1752 23.2227 40.9192 23.084 40.6845 22.956C40.4712 22.828 40.2472 22.7213 40.0125 22.636C39.7992 22.5293 39.6072 22.572 39.4365 22.764C39.2872 22.956 39.1698 23.276 39.0845 23.724H38.3805C38.4232 23.0413 38.4552 22.2093 38.4765 21.228C38.4978 20.2467 38.5085 18.9453 38.5085 17.324H39.2125C39.3618 18.4973 39.5858 19.532 39.8845 20.428C40.2045 21.3027 40.6632 21.996 41.2605 22.508C41.8578 22.9987 42.6258 23.244 43.5645 23.244C43.9698 23.244 44.3538 23.1587 44.7165 22.988C45.1005 22.8173 45.4098 22.5507 45.6445 22.188C45.9005 21.8253 46.0285 21.3347 46.0285 20.716C46.0285 19.7773 45.7085 18.9987 45.0685 18.38C44.4285 17.7613 43.6285 17.1 42.6685 16.396C41.9432 15.8627 41.2605 15.34 40.6205 14.828C40.0018 14.316 39.4898 13.74 39.0845 13.1C38.7005 12.46 38.5085 11.7027 38.5085 10.828C38.5085 9.868 38.7538 9.07867 39.2445 8.46C39.7352 7.82 40.3752 7.34 41.1645 7.02C41.9752 6.67867 42.8392 6.508 43.7565 6.508ZM58.3175 1.708V6.988H62.4135V7.628H58.3175V20.364C58.3175 21.132 58.4562 21.676 58.7335 21.996C59.0108 22.316 59.4055 22.476 59.9175 22.476C60.4082 22.476 60.8562 22.2947 61.2615 21.932C61.6668 21.548 62.0295 20.9187 62.3495 20.044L62.9255 20.3C62.6055 21.3453 62.1042 22.22 61.4215 22.924C60.7602 23.6067 59.8215 23.948 58.6055 23.948C57.8802 23.948 57.2615 23.852 56.7495 23.66C56.2588 23.4893 55.8322 23.2333 55.4695 22.892C55.0002 22.4013 54.6802 21.8147 54.5095 21.132C54.3602 20.4493 54.2855 19.5427 54.2855 18.412V7.628H51.4695V6.988H54.2855V2.54C55.0535 2.51867 55.7682 2.444 56.4295 2.316C57.0908 2.188 57.7202 1.98533 58.3175 1.708ZM71.585 6.508C73.057 6.508 74.3583 6.80667 75.489 7.404C76.641 7.98 77.5477 8.908 78.209 10.188C78.8917 11.468 79.233 13.1533 79.233 15.244C79.233 17.3347 78.8917 19.02 78.209 20.3C77.5477 21.58 76.641 22.508 75.489 23.084C74.3583 23.66 73.057 23.948 71.585 23.948C70.113 23.948 68.801 23.66 67.649 23.084C66.497 22.508 65.5903 21.58 64.929 20.3C64.2677 19.02 63.937 17.3347 63.937 15.244C63.937 13.1533 64.2677 11.468 64.929 10.188C65.5903 8.908 66.497 7.98 67.649 7.404C68.801 6.80667 70.113 6.508 71.585 6.508ZM71.585 7.148C70.5823 7.148 69.761 7.788 69.121 9.068C68.5023 10.3267 68.193 12.3853 68.193 15.244C68.193 18.1027 68.5023 20.1613 69.121 21.42C69.761 22.6787 70.5823 23.308 71.585 23.308C72.5663 23.308 73.377 22.6787 74.017 21.42C74.657 20.1613 74.977 18.1027 74.977 15.244C74.977 12.3853 74.657 10.3267 74.017 9.068C73.377 7.788 72.5663 7.148 71.585 7.148ZM81.0583 0.844C81.5916 0.865333 82.2743 0.886666 83.1063 0.907999C83.9383 0.929332 84.7703 0.939999 85.6023 0.939999C86.6476 0.939999 87.6396 0.929332 88.5783 0.907999C89.5169 0.886666 90.1783 0.875999 90.5623 0.875999C93.4209 0.875999 95.5436 1.46267 96.9303 2.636C98.3383 3.80933 99.0423 5.324 99.0423 7.18C99.0423 7.948 98.9036 8.75867 98.6263 9.612C98.3489 10.444 97.8689 11.2227 97.1863 11.948C96.5036 12.652 95.5649 13.228 94.3703 13.676C93.1969 14.124 91.6929 14.348 89.8583 14.348H86.6583V13.708H89.5383C90.8823 13.708 91.9063 13.42 92.6103 12.844C93.3356 12.268 93.8156 11.5107 94.0503 10.572C94.3063 9.63333 94.4343 8.62 94.4343 7.532C94.4343 5.50533 94.1036 3.99067 93.4423 2.988C92.7809 1.98533 91.6396 1.484 90.0183 1.484C89.1436 1.484 88.5676 1.66533 88.2903 2.028C88.0343 2.39067 87.9062 3.12667 87.9062 4.236V19.98C87.9062 20.7907 87.9916 21.3987 88.1623 21.804C88.3329 22.2093 88.6636 22.476 89.1543 22.604C89.6449 22.732 90.3489 22.8067 91.2663 22.828V23.5C90.6476 23.4573 89.8476 23.436 88.8663 23.436C87.8849 23.4147 86.8716 23.404 85.8263 23.404C84.9303 23.404 84.0663 23.4147 83.2343 23.436C82.4023 23.436 81.6769 23.4573 81.0583 23.5V22.86C81.7623 22.8173 82.2849 22.732 82.6263 22.604C82.9889 22.476 83.2236 22.22 83.3303 21.836C83.4583 21.452 83.5223 20.876 83.5223 20.108V4.236C83.5223 3.44666 83.4583 2.87067 83.3303 2.508C83.2236 2.124 82.9889 1.868 82.6263 1.74C82.2849 1.59067 81.7623 1.50533 81.0583 1.484V0.844ZM111.269 6.508C111.93 6.508 112.474 6.64667 112.901 6.924C113.349 7.20133 113.679 7.55333 113.893 7.98C114.106 8.40667 114.213 8.85467 114.213 9.324C114.213 10.028 113.999 10.6147 113.573 11.084C113.167 11.5533 112.623 11.788 111.941 11.788C111.301 11.788 110.778 11.6173 110.373 11.276C109.967 10.9347 109.765 10.4653 109.765 9.868C109.765 9.33467 109.893 8.88667 110.149 8.524C110.426 8.16133 110.735 7.87333 111.077 7.66C110.842 7.532 110.575 7.48933 110.277 7.532C109.765 7.57467 109.295 7.756 108.869 8.076C108.442 8.396 108.079 8.79067 107.781 9.26C107.482 9.72933 107.247 10.2307 107.077 10.764C106.927 11.2973 106.853 11.8093 106.853 12.3V20.204C106.853 21.2493 107.119 21.9533 107.653 22.316C108.186 22.6573 108.965 22.828 109.989 22.828V23.5C109.498 23.4787 108.783 23.4573 107.845 23.436C106.927 23.3933 105.967 23.372 104.965 23.372C104.133 23.372 103.301 23.3933 102.469 23.436C101.658 23.4573 101.05 23.4787 100.645 23.5V22.828C101.434 22.828 101.989 22.668 102.309 22.348C102.65 22.028 102.821 21.42 102.821 20.524V10.444C102.821 9.484 102.661 8.78 102.341 8.332C102.042 7.86267 101.477 7.628 100.645 7.628V6.956C101.327 7.02 101.989 7.052 102.629 7.052C103.418 7.052 104.165 7.02 104.869 6.956C105.594 6.87067 106.255 6.75333 106.853 6.604V9.932C107.109 9.33467 107.439 8.78 107.845 8.268C108.271 7.756 108.773 7.34 109.349 7.02C109.946 6.67867 110.586 6.508 111.269 6.508ZM122.96 6.508C124.432 6.508 125.733 6.80667 126.864 7.404C128.016 7.98 128.923 8.908 129.584 10.188C130.267 11.468 130.608 13.1533 130.608 15.244C130.608 17.3347 130.267 19.02 129.584 20.3C128.923 21.58 128.016 22.508 126.864 23.084C125.733 23.66 124.432 23.948 122.96 23.948C121.488 23.948 120.176 23.66 119.024 23.084C117.872 22.508 116.965 21.58 116.304 20.3C115.643 19.02 115.312 17.3347 115.312 15.244C115.312 13.1533 115.643 11.468 116.304 10.188C116.965 8.908 117.872 7.98 119.024 7.404C120.176 6.80667 121.488 6.508 122.96 6.508ZM122.96 7.148C121.957 7.148 121.136 7.788 120.496 9.068C119.877 10.3267 119.568 12.3853 119.568 15.244C119.568 18.1027 119.877 20.1613 120.496 21.42C121.136 22.6787 121.957 23.308 122.96 23.308C123.941 23.308 124.752 22.6787 125.392 21.42C126.032 20.1613 126.352 18.1027 126.352 15.244C126.352 12.3853 126.032 10.3267 125.392 9.068C124.752 7.788 123.941 7.148 122.96 7.148Z" fill="white"/>
</svg>