<svg width="67" height="67" viewBox="0 0 67 67" fill="none" xmlns="http://www.w3.org/2000/svg">
<rect width="67" height="67" rx="33.5" fill="white" fill-opacity="0.5"/>
<path d="M25.3518 20.9905C25.2412 20.8481 25.1014 20.7309 24.942 20.6467C24.7825 20.5624 24.607 20.5131 24.427 20.5019C24.247 20.4907 24.0667 20.518 23.898 20.5819C23.7293 20.6457 23.5762 20.7448 23.4488 20.8724L21.5101 22.8129C20.6045 23.7204 20.2707 25.0048 20.6663 26.1316C22.3083 30.7957 24.9793 35.0303 28.4811 38.5213C31.9722 42.0231 36.2068 44.6941 40.8708 46.3361C41.9977 46.7317 43.282 46.398 44.1895 45.4924L46.1282 43.5537C46.2558 43.4262 46.3548 43.2731 46.4187 43.1045C46.4826 42.9358 46.5098 42.7555 46.4987 42.5755C46.4875 42.3955 46.4381 42.2199 46.3539 42.0605C46.2697 41.901 46.1525 41.7613 46.0101 41.6506L41.6846 38.2869C41.5325 38.169 41.3555 38.0871 41.1672 38.0474C40.9788 38.0078 40.7838 38.0115 40.5971 38.0582L36.4909 39.0838C35.9429 39.2208 35.3686 39.2135 34.8242 39.0627C34.2798 38.9119 33.7836 38.6227 33.3841 38.2232L28.7793 33.6164C28.3795 33.2171 28.0899 32.7211 27.9387 32.1767C27.7876 31.6322 27.78 31.0579 27.9168 30.5096L28.9443 26.4035C28.991 26.2167 28.9946 26.0218 28.955 25.8334C28.9154 25.645 28.8335 25.4681 28.7155 25.316L25.3518 20.9905ZM22.0332 19.4587C22.3613 19.1304 22.7555 18.8758 23.1895 18.7116C23.6236 18.5474 24.0876 18.4774 24.5508 18.5064C25.014 18.5353 25.4658 18.6624 25.876 18.8793C26.2863 19.0961 26.6458 19.3978 26.9306 19.7643L30.2942 24.0879C30.9111 24.881 31.1286 25.9141 30.8848 26.8891L29.8592 30.9952C29.8062 31.2079 29.8091 31.4307 29.8675 31.6419C29.926 31.8532 30.0381 32.0457 30.193 32.2008L34.7997 36.8076C34.9551 36.9628 35.1479 37.0751 35.3595 37.1335C35.5711 37.192 35.7943 37.1947 36.0072 37.1413L40.1115 36.1157C40.5926 35.9954 41.0948 35.9861 41.5801 36.0884C42.0654 36.1907 42.5211 36.402 42.9127 36.7064L47.2363 40.07C48.7906 41.2794 48.9331 43.5762 47.5419 44.9655L45.6032 46.9042C44.2158 48.2917 42.1421 48.9011 40.209 48.2205C35.2613 46.4796 30.7691 43.6471 27.0656 39.9332C23.3518 36.2301 20.5194 31.7386 18.7783 26.7916C18.0995 24.8604 18.7089 22.7848 20.0963 21.3974L22.035 19.4587H22.0332Z" fill="white"/>
</svg>
